<?xml version="1.0"?><svg width="1280" height="960" xmlns="http://www.w3.org/2000/svg">
 <title>Blue Curved Arrow</title>
 <metadata id="metadata9">image/svg+xml</metadata>
 <g>
  <title>Layer 1</title>
  <g transform="rotate(90.16719055175781 642.8021240234376,474.14154052734375) " id="1" fill="#ff0000">
   <path id="2" d="m637.753662,939.391602l166.612,166.65625l167.033569,-167.49823l11.780762,-60.602356l8.835571,-72.386353l2.944885,-72.386108l-2.944885,-71.544556l-8.835571,-71.965393l-11.780762,-59.760864l-15.567444,-58.918854l-19.774658,-59.339539l-26.927307,-65.232056l-34.500366,-70.281891l-39.970337,-70.282059l-54.696228,-81.224045l-52.592163,-69.44014l-58.903564,-69.440269l-75.733154,-80.382431l-65.634766,-63.12751l-0.421082,236.517792l-236.034332,0.420845l76.995117,75.752983l67.738922,75.332184l52.592285,65.652496l45.860901,65.652618l43.335938,74.490662l31.134644,64.810944l19.774475,51.343506l15.98822,55.131409l10.097778,46.293579l6.732056,45.451477l3.365723,54.710815l-2.10376,54.289673l-5.048767,45.451843l-10.939575,53.868652l-8.414124,31.984924z" fill-rule="evenodd" fill="#007fff"/>
  </g>
 </g>
</svg>