<?xml version="1.0" encoding="UTF-8" standalone="no"?>
<svg
   xmlns:dc="http://purl.org/dc/elements/1.1/"
   xmlns:cc="http://creativecommons.org/ns#"
   xmlns:rdf="http://www.w3.org/1999/02/22-rdf-syntax-ns#"
   xmlns:svg="http://www.w3.org/2000/svg"
   xmlns="http://www.w3.org/2000/svg"
   xmlns:sodipodi="http://sodipodi.sourceforge.net/DTD/sodipodi-0.dtd"
   xmlns:inkscape="http://www.inkscape.org/namespaces/inkscape"
   version="1.1"
   id="Layer_1"
   width="1900"
   height="492"
   viewBox="-3.5 -3.5 1900 492"
   enable-background="new -3.5 -3.5 695 185"
   xml:space="preserve"
   inkscape:version="0.48.4 r9939"
   sodipodi:docname="angular_backdrop.svg"><metadata
     id="metadata66"><rdf:RDF><cc:Work
         rdf:about=""><dc:format>image/svg+xml</dc:format><dc:type
           rdf:resource="http://purl.org/dc/dcmitype/StillImage" /></cc:Work></rdf:RDF></metadata><defs
     id="defs64" /><sodipodi:namedview
     pagecolor="#ffffff"
     bordercolor="#666666"
     borderopacity="1"
     objecttolerance="10"
     gridtolerance="10"
     guidetolerance="10"
     inkscape:pageopacity="0"
     inkscape:pageshadow="2"
     inkscape:window-width="2023"
     inkscape:window-height="1051"
     id="namedview62"
     showgrid="false"
     inkscape:zoom="0.65619605"
     inkscape:cx="45.543064"
     inkscape:cy="84.874841"
     inkscape:window-x="0"
     inkscape:window-y="27"
     inkscape:window-maximized="0"
     inkscape:current-layer="g12" /><filter
     id="googleDropShadow"
     color-interpolation-filters="sRGB"><feOffset
       result="offOut"
       in="SourceGraphic"
       dx="0.3"
       dy="0.5"
       id="feOffset4" /><feGaussianBlur
       stdDeviation="0.25"
       result="blurOut"
       in="offOut"
       id="feGaussianBlur6" /><feColorMatrix
       type="matrix"
       result="blurTransOut"
       in="blurOut"
       values="1 0 0 0 0 0 1 0 0 0 0 0 1 0 0 0 0 0 .8 0"
       id="feColorMatrix8" /><feBlend
       in="SourceGraphic"
       mode="normal"
       in2="blurTransOut"
       id="feBlend10" /></filter><g
     id="g12"
     transform="translate(9.1436089,140.89111)"><polygon
       points="185.914,128.516 177.248,128.516 177.248,57.715 186.407,57.715 229.733,114.75 229.733,57.715 238.394,57.715 238.394,128.516 229.236,128.516 185.914,70.98 "
       id="polygon14"
       style="fill:#cccccc"
       transform="matrix(0.63581643,0,0,0.63581643,0.2017577,0.31866062)" /><path
       d="m 196.47702,80.268126 c -3.62924,1.387352 -7.54524,2.078484 -11.74226,2.078484 -16.30424,0 -24.45986,-7.816727 -24.45986,-23.452725 0,-14.796084 7.87014,-22.19508 23.60787,-22.19508 4.51556,0 8.71386,0.631366 12.59361,1.89219 v 5.036302 c -3.88038,-1.469372 -7.87013,-2.205012 -11.96416,-2.205012 -12.27507,0 -18.41133,5.825986 -18.41133,17.4716 0,12.486163 6.04025,18.732424 18.13221,18.732424 1.92843,0 4.06859,-0.253055 6.42111,-0.758529 V 61.570037 h 5.82281 l 0,18.698089 0,0 z"
       id="path16"
       inkscape:connector-curvature="0"
       style="fill:#cccccc" /><path
       d="M 205.76439,64.654382 V 37.016713 h 5.81963 v 27.637033 c 0,8.646468 4.30384,12.97447 12.90961,12.97447 8.60324,0 12.90708,-4.328638 12.90708,-12.97447 V 37.016713 h 5.8228 v 27.637033 c 0,11.798846 -6.24308,17.694772 -18.72988,17.694772 -12.48616,6.35e-4 -18.72924,-5.895926 -18.72924,-17.694136 z"
       id="path18"
       inkscape:connector-curvature="0"
       style="fill:#cccccc" /><polygon
       points="444.758,128.516 398.563,128.516 398.563,57.715 407.717,57.715 407.717,121.092 444.758,121.092 "
       id="polygon20"
       style="fill:#cccccc"
       transform="matrix(0.63581643,0,0,0.63581643,0.2017577,0.31866062)" /><polygon
       points="483.275,66.728 457.973,128.518 448.469,128.518 483.669,48.376 518.87,128.518 508.723,128.518 499.56,106.234 476.148,106.234 478.671,98.816 496.495,98.816 "
       id="polygon22"
       style="fill:#cccccc"
       transform="matrix(0.63581643,0,0,0.63581643,0.2017577,0.31866062)" /><path
       d="M 336.24727,82.031245 V 37.014806 h 19.20357 c 8.56381,0 12.84412,3.600628 12.84412,10.796799 0,5.857141 -4.1843,10.191501 -12.55991,13.000538 l 15.45606,21.219102 h -7.6813 l -14.32113,-20.24058 v -3.805997 c 8.6026,-1.367641 12.9039,-4.672615 12.9039,-9.917465 0,-4.153789 -2.39195,-6.234816 -7.17392,-6.234816 h -12.84731 v 40.200766 h -5.82344 l -6.4e-4,-0.0019 0,0 z"
       id="path24"
       inkscape:connector-curvature="0"
       style="fill:#cccccc" /><path
       d="m 393.00788,37.014806 v 32.047691 c 0,8.645832 -5.08971,12.968112 -15.27041,12.968112 v -4.720937 c 6.29713,0 9.44633,-2.752449 9.44633,-8.24781 V 37.014806 h 5.82408 z"
       id="path26"
       inkscape:connector-curvature="0"
       style="fill:#cccccc" /><path
       d="m 403.39648,80.456964 v -5.352303 c 4.72348,1.678555 9.82146,2.521012 15.29965,2.521012 7.74425,0 11.61764,-2.833834 11.61764,-8.50468 0,-4.819489 -2.85672,-7.238771 -8.56445,-7.238771 h -5.79419 c -9.42089,0 -14.13611,-4.089571 -14.13611,-12.275072 0,-8.603232 6.03708,-12.909616 18.10742,-12.909616 5.24485,0 10.12347,0.634544 14.63713,1.892189 v 5.351667 c -4.51493,-1.680463 -9.39228,-2.520376 -14.63713,-2.520376 -8.18614,0 -12.27825,2.72956 -12.27825,8.186136 0,4.824576 2.76834,7.23877 8.30694,7.23877 h 5.79419 c 9.58812,0 14.38726,4.095294 14.38726,12.275073 0,8.817502 -5.81264,13.225617 -17.44172,13.225617 -5.47692,0 -10.5749,-0.632001 -15.29838,-1.889646 z"
       id="path28"
       inkscape:connector-curvature="0"
       style="fill:#cccccc" /><polygon
       points="188.227,126.203 179.565,126.203 179.565,55.402 188.723,55.402 232.045,112.438 232.045,55.402 240.711,55.402 240.711,126.203 231.552,126.203 188.227,68.667 "
       id="polygon30"
       transform="matrix(0.63581643,0,0,0.63581643,0.2017577,0.31866062)" /><path
       d="m 197.95021,78.797483 c -3.62924,1.387351 -7.54333,2.077848 -11.74163,2.077848 -16.30551,0 -24.45985,-7.816091 -24.45985,-23.452089 0,-14.796084 7.87013,-22.195716 23.61104,-22.195716 4.51175,0 8.71068,0.632002 12.59044,1.89219 v 5.035666 c -3.88039,-1.469372 -7.87014,-2.205012 -11.96162,-2.205012 -12.27571,0 -18.41324,5.825986 -18.41324,17.4716 0,12.486799 6.0428,18.73306 18.13157,18.73306 1.92907,0 4.07177,-0.251784 6.42366,-0.758529 V 60.098122 h 5.82026 l -6.3e-4,18.699361 0,0 z"
       id="path32"
       inkscape:connector-curvature="0" /><path
       d="M 207.23694,63.182467 V 35.541619 h 5.81963 v 27.640212 c 0,8.645832 4.30384,12.971291 12.91025,12.971291 8.6026,0 12.90644,-4.326095 12.90644,-12.971291 V 35.541619 h 5.82281 v 27.640212 c 0,11.79821 -6.24309,17.691592 -18.72925,17.691592 -12.4868,0 -18.72988,-5.89211 -18.72988,-17.690956 z"
       id="path34"
       inkscape:connector-curvature="0" /><polygon
       points="447.071,126.199 400.88,126.199 400.88,55.398 410.034,55.398 410.034,118.775 447.071,118.775 "
       id="polygon36"
       transform="matrix(0.63581643,0,0,0.63581643,0.2017577,0.31866062)" /><polygon
       points="485.592,64.408 460.29,126.202 450.785,126.202 485.987,46.056 521.188,126.202 511.035,126.202 501.877,103.92 478.46,103.92 480.989,96.496 498.808,96.496 "
       id="polygon38"
       transform="matrix(0.63581643,0,0,0.63581643,0.2017577,0.31866062)" /><path
       d="M 337.72046,80.560602 V 35.544163 h 19.20293 c 8.56445,0 12.84095,3.598085 12.84095,10.797434 0,5.853962 -4.18177,10.190866 -12.55674,12.999267 l 15.4567,21.219738 h -7.68448 L 350.6606,60.319386 v -3.809812 c 8.60323,-1.367642 12.90643,-4.669436 12.90643,-9.917465 0,-4.153789 -2.39448,-6.231637 -7.17964,-6.231637 H 343.5439 v 40.20013 c 0,0 -5.82344,0 -5.82344,0 z"
       id="path40"
       inkscape:connector-curvature="0" /><path
       d="m 394.48106,35.541619 v 32.048328 c 0,8.648375 -5.08971,12.968112 -15.26976,12.968112 v -4.720302 c 6.29649,0 9.44569,-2.753085 9.44569,-8.248446 V 35.541619 h 5.82407 z"
       id="path42"
       inkscape:connector-curvature="0"
       style="fill:#a6120d" /><path
       d="m 404.86713,78.983777 v -5.351031 c 4.72411,1.677919 9.82145,2.521012 15.30028,2.521012 7.74361,0 11.617,-2.835105 11.617,-8.502773 0,-4.822032 -2.85608,-7.23877 -8.56444,-7.23877 h -5.7942 c -9.42089,0 -14.13547,-4.092115 -14.13547,-12.278251 0,-8.603232 6.03453,-12.908981 18.10678,-12.908981 5.24485,0 10.12411,0.634545 14.63777,1.892189 v 5.352303 c -4.51557,-1.681098 -9.39292,-2.521012 -14.63777,-2.521012 -8.18614,0 -12.27825,2.72956 -12.27825,8.186137 0,4.824575 2.76644,7.23877 8.30694,7.23877 h 5.7942 c 9.58747,0 14.38725,4.093386 14.38725,12.277615 0,8.815595 -5.812,13.223074 -17.44108,13.223074 -5.47692,-6.36e-4 -10.57553,-0.632637 -15.29901,-1.890282 z"
       id="path44"
       inkscape:connector-curvature="0"
       style="fill:#a6120d" /></g><g
     id="g48"
     transform="matrix(0.63581643,0,0,0.63581643,9.3453666,141.20977)"><polygon
       points="83.331,176.625 153.4,137.792 166.462,29.46 83.243,0.875 0.554,29.975 13.621,138.311 "
       id="polygon50"
       style="fill:#b3b3b3" /><polygon
       points="83.05,10.089 83.05,167.471 146.041,132.609 158.214,35.721 "
       id="polygon52"
       style="fill:#a6120d" /><polygon
       points="21.03,133.072 83.049,167.471 83.049,10.086 9.833,36.183 "
       id="polygon54"
       style="fill:#dd1b16" /><path
       d="m 103.74,93.871 -20.69,9.675 H 61.243 L 50.992,129.186 31.925,129.539 83.05,15.804 103.74,93.871 z M 101.74,89 83.187,52.271 67.969,88.368 h 15.08 L 101.74,89 z"
       id="path56"
       inkscape:connector-curvature="0"
       style="fill:#f2f2f2" /><polygon
       points="83.186,52.271 100.454,88.396 83.088,88.396 83.049,103.523 107.062,103.546 118.285,129.543 136.529,129.881 83.049,15.804 "
       id="polygon58"
       style="fill:#b3b3b3" /></g></svg>